<svg id="Layer_1" data-name="Layer 1" 
  xmlns="http://www.w3.org/2000/svg" viewBox="0 0 7.2 9.59">
  <defs>
    <style>.cls-1{fill:#e6e7e8;}.cls-1,.cls-10,.cls-11,.cls-12,.cls-2,.cls-3,.cls-4,.cls-5,.cls-6,.cls-7,.cls-8,.cls-9{stroke:#58595b;stroke-miterlimit:10;stroke-width:0.2px;}.cls-2{fill:#e8afb6;}.cls-3{fill:#c96f7a;}.cls-4{fill:#bd4453;}.cls-5{fill:#be1e2d;}.cls-6{fill:#b72b3d;}.cls-7{fill:#b83b51;}.cls-8{fill:#eacbce;}.cls-9{fill:#1b75bc;}.cls-10{fill:#7aaacb;}.cls-11{fill:#a7c5d8;}.cls-12{fill:none;}</style>
  </defs>
  <title>spring-icon</title>
  <path class="cls-1" d="M1.35.85A.32.32,0,1,1,1,.54.31.31,0,0,1,1.35.85Z" transform="translate(0 0)"/>
  <path class="cls-1" d="M.72,2a.31.31,0,0,1-.31.32A.32.32,0,1,1,.72,2Z" transform="translate(0 0)"/>
  <path class="cls-2" d="M2.7,4.11a.3.3,0,0,1-.19.39.31.31,0,0,1-.4-.19.32.32,0,0,1,.2-.4A.31.31,0,0,1,2.7,4.11Z" transform="translate(0 0)"/>
  <path class="cls-1" d="M2.1,3.33A.32.32,0,1,1,1.78,3,.32.32,0,0,1,2.1,3.33Z" transform="translate(0 0)"/>
  <path class="cls-1" d="M1.06,3.11a.31.31,0,0,1-.31.31.32.32,0,0,1,0-.63A.31.31,0,0,1,1.06,3.11Z" transform="translate(0 0)"/>
  <path class="cls-3" d="M3.41,5a.32.32,0,0,1-.2.4.31.31,0,0,1-.39-.2A.3.3,0,0,1,3,4.77.31.31,0,0,1,3.41,5Z" transform="translate(0 0)"/>
  <path class="cls-4" d="M3.49,6.11a.3.3,0,0,1-.19.39.31.31,0,1,1,.19-.39Z" transform="translate(0 0)"/>
  <path class="cls-4" d="M4.74,6.07a.3.3,0,0,1-.19.39.31.31,0,0,1-.4-.19.32.32,0,0,1,.2-.4A.31.31,0,0,1,4.74,6.07Z" transform="translate(0 0)"/>
  <path class="cls-5" d="M5.22,8.28A.3.3,0,0,1,5,8.67a.31.31,0,1,1-.2-.59A.31.31,0,0,1,5.22,8.28Z" transform="translate(0 0)"/>
  <path class="cls-4" d="M3.72,7a.32.32,0,0,1-.2.4.31.31,0,0,1-.39-.2.3.3,0,0,1,.19-.39A.31.31,0,0,1,3.72,7Z" transform="translate(0 0)"/>
  <path class="cls-4" d="M2.45,6.79a.33.33,0,0,1-.2.4A.31.31,0,0,1,1.86,7a.3.3,0,0,1,.19-.39A.32.32,0,0,1,2.45,6.79Z" transform="translate(0 0)"/>
  <path class="cls-6" d="M2.73,8a.32.32,0,0,1-.2.4.32.32,0,0,1-.2-.6A.33.33,0,0,1,2.73,8Z" transform="translate(0 0)"/>
  <path class="cls-5" d="M3.43,9a.32.32,0,0,1-.6.2.33.33,0,0,1,.2-.4A.32.32,0,0,1,3.43,9Z" transform="translate(0 0)"/>
  <path class="cls-5" d="M4.59,9.08a.31.31,0,0,1-.2.39A.3.3,0,0,1,4,9.28a.31.31,0,1,1,.59-.2Z" transform="translate(0 0)"/>
  <path class="cls-7" d="M4.76,7.32a.3.3,0,0,1-.19.39.32.32,0,0,1-.4-.19.33.33,0,0,1,.2-.4A.31.31,0,0,1,4.76,7.32Z" transform="translate(0 0)"/>
  <path class="cls-7" d="M5.64,7a.31.31,0,0,1-.19.4.32.32,0,0,1-.4-.2A.31.31,0,0,1,5.64,7Z" transform="translate(0 0)"/>
  <path class="cls-8" d="M6.18,4.93A.32.32,0,0,1,6,5.32a.32.32,0,0,1-.38-.22.31.31,0,0,1,.21-.38A.32.32,0,0,1,6.18,4.93Z" transform="translate(0 0)"/>
  <path class="cls-8" d="M4.65,4.81a.31.31,0,0,1-.6.17.31.31,0,1,1,.6-.17Z" transform="translate(0 0)"/>
  <path class="cls-1" d="M2.41,2.14a.32.32,0,1,1-.32-.31A.31.31,0,0,1,2.41,2.14Z" transform="translate(0 0)"/>
  <path class="cls-9" d="M4,.55a.32.32,0,0,1-.22.39A.31.31,0,0,1,3.36.72.3.3,0,0,1,3.57.34.32.32,0,0,1,4,.55Z" transform="translate(0 0)"/>
  <path class="cls-9" d="M5.39.33a.32.32,0,0,1-.22.38A.31.31,0,0,1,4.79.5.32.32,0,0,1,5,.11.32.32,0,0,1,5.39.33Z" transform="translate(0 0)"/>
  <path class="cls-9" d="M6.54,1.21A.31.31,0,1,1,6.16,1,.31.31,0,0,1,6.54,1.21Z" transform="translate(0 0)"/>
  <path class="cls-10" d="M4.16,2.09a.31.31,0,0,1-.22.38.31.31,0,0,1-.38-.21.32.32,0,0,1,.21-.39A.32.32,0,0,1,4.16,2.09Z" transform="translate(0 0)"/>
  <path class="cls-11" d="M4.58,3.59A.31.31,0,0,1,4.37,4,.32.32,0,0,1,4,3.76a.32.32,0,0,1,.22-.39A.31.31,0,0,1,4.58,3.59Z" transform="translate(0 0)"/>
  <path class="cls-11" d="M6.16,3.75A.31.31,0,0,1,6,4.13a.32.32,0,0,1-.39-.21.32.32,0,0,1,.22-.39A.3.3,0,0,1,6.16,3.75Z" transform="translate(0 0)"/>
  <path class="cls-10" d="M5.62,3a.32.32,0,0,1-.22.39.31.31,0,0,1-.17-.6A.32.32,0,0,1,5.62,3Z" transform="translate(0 0)"/>
  <path class="cls-9" d="M5.58,1.68a.32.32,0,0,1-.22.39.31.31,0,0,1-.17-.6A.32.32,0,0,1,5.58,1.68Z" transform="translate(0 0)"/>
  <path class="cls-10" d="M7.09,2.56A.31.31,0,0,1,6.87,3a.31.31,0,0,1-.38-.21.31.31,0,1,1,.6-.18Z" transform="translate(0 0)"/>
  <path class="cls-3" d="M2.17,5.71a.32.32,0,0,1-.19.4.33.33,0,0,1-.4-.2.3.3,0,0,1,.19-.39A.31.31,0,0,1,2.17,5.71Z" transform="translate(0 0)"/>
  <line class="cls-12" x1="2.37" y1="7.68" x2="2.35" y2="7.32"/>
  <line class="cls-12" x1="2.62" y1="6.96" x2="3.02" y2="7.06"/>
  <line class="cls-12" x1="2.5" y1="6.69" x2="2.86" y2="6.48"/>
  <line class="cls-12" x1="4.17" y1="3.29" x2="3.99" y2="2.63"/>
  <line class="cls-12" x1="3.7" y1="1.64" x2="3.68" y2="1.06"/>
  <line class="cls-12" x1="4.12" y1="0.69" x2="4.6" y2="0.55"/>
  <line class="cls-12" x1="4.24" y1="1.82" x2="4.9" y2="0.88"/>
  <line class="cls-12" x1="5.18" y1="0.92" x2="5.22" y2="1.27"/>
  <line class="cls-12" x1="5.84" y1="1.03" x2="5.4" y2="0.79"/>
  <line class="cls-12" x1="5.68" y1="2.69" x2="6.06" y2="1.78"/>
  <line class="cls-12" x1="6.68" y1="2.25" x2="6.45" y2="1.76"/>
  <line class="cls-12" x1="6.4" y1="2.82" x2="5.69" y2="3"/>
  <line class="cls-12" x1="6.64" y1="3.06" x2="6.19" y2="3.53"/>
  <line class="cls-12" x1="5.31" y1="3.94" x2="4.79" y2="3.81"/>
  <line class="cls-12" x1="5.33" y1="2.68" x2="5.3" y2="2.15"/>
  <line class="cls-12" x1="4.64" y1="3.52" x2="4.86" y2="3.3"/>
  <line class="cls-12" x1="5.87" y1="4.48" x2="5.86" y2="4.27"/>
  <line class="cls-12" x1="1.84" y1="2.82" x2="1.97" y2="2.59"/>
  <line class="cls-12" x1="1.19" y1="3.17" x2="1.44" y2="3.26"/>
  <line class="cls-12" x1="0.91" y1="2.08" x2="1.56" y2="2.14"/>
  <line class="cls-12" x1="1.07" y1="2.85" x2="1.7" y2="2.44"/>
  <line class="cls-12" x1="0.54" y1="2.31" x2="0.68" y2="2.74"/>
  <line class="cls-12" x1="0.83" y1="1.69" x2="1.03" y2="1.32"/>
  <line class="cls-12" x1="1.35" y1="1.19" x2="1.78" y2="1.72"/>
  <line class="cls-12" x1="1.97" y1="3.64" x2="2.15" y2="3.9"/>
  <line class="cls-12" x1="2.65" y1="4.48" x2="2.86" y2="4.78"/>
  <line class="cls-12" x1="2.31" y1="5.75" x2="2.67" y2="5.41"/>
  <line class="cls-12" x1="2.08" y1="6.53" x2="1.87" y2="6.2"/>
  <line class="cls-12" x1="3.74" y1="6.85" x2="4.07" y2="6.54"/>
  <line class="cls-12" x1="3.8" y1="7.25" x2="4.07" y2="7.34"/>
  <line class="cls-12" x1="3.22" y1="5.83" x2="3.27" y2="5.39"/>
  <line class="cls-12" x1="3.59" y1="6.17" x2="4.04" y2="6.14"/>
  <line class="cls-12" x1="3.21" y1="8.58" x2="3.32" y2="7.5"/>
  <line class="cls-12" x1="2.89" y1="8.69" x2="2.62" y2="8.42"/>
  <line class="cls-12" x1="4.66" y1="7.77" x2="4.76" y2="8.04"/>
  <line class="cls-12" x1="4.47" y1="6.54" x2="4.49" y2="7"/>
  <line class="cls-12" x1="4.77" y1="6.41" x2="5.09" y2="6.75"/>
  <line class="cls-12" x1="5.24" y1="7.51" x2="5.1" y2="7.95"/>
  <line class="cls-12" x1="4.93" y1="5.94" x2="5.58" y2="5.46"/>
  <line class="cls-12" x1="4.57" y1="5.81" x2="4.42" y2="5.26"/>
  <line class="cls-12" x1="4.34" y1="4.5" x2="4.4" y2="4.07"/>
  <line class="cls-12" x1="3.54" y1="9.18" x2="3.87" y2="9.16"/>
  <line class="cls-12" x1="4.61" y1="8.9" x2="4.79" y2="8.73"/>
  <line class="cls-12" x1="4.17" y1="8.74" x2="3.57" y2="7.5"/>
  <line class="cls-12" x1="3.42" y1="5.29" x2="4.17" y2="5.91"/>
</svg>